<svg id="Layer_1" data-name="Layer 1" xmlns="http://www.w3.org/2000/svg" viewBox="0 0 512 512"><defs><style>.cls-1{fill:#ffefd6;}.cls-2{fill:#e2a379;}.cls-3{fill:#f4b382;}.cls-4{fill:#3d3c3c;}.cls-5{fill:#b3233b;}.cls-6{fill:#d6876b;}.cls-7{fill:#cc785e;}.cls-8{fill:#4c230c;}.cls-9{fill:#602f0f;}.cls-10{fill:#333;}</style></defs><title>side plank leg lift</title><path class="cls-1" d="M7.92,256C7.92,119,119,7.92,256,7.92S504.08,119,504.08,256,393,504.08,256,504.08,7.92,393,7.92,256Z"/><path class="cls-2" d="M282.46,114.25c-4,.94-15,5.15-29.25,6.51-1.56.15-2.84,2.83-3,6.31-.2,4.57,3.4,7.18,3.25,8.8-.77,8.32-8.21,30.07-9,40.13-.19,2.33-.32,2.83-.39,5.29-.29,9.94,21.46,6.33,21.51,2.75.18-14.44-1.53-47.73-2.49-52.88,0,0,16.67-4.77,20.53-10.79C284.84,118.44,286.47,113.31,282.46,114.25Z"/><path class="cls-3" d="M274,115.4c-3.46,1.45,4.43,15.31,5.35,20.08l4.57,4.23c11.25,32.88,19.78,46.94,19.78,46.94,5.83,20,21.14,53.91,25.4,60.61,2.49,4.08,21.17-5.46,19-10.86-4.2-8-6.78-9.83-10.51-16.95-3.07-7.27-18.63-31.53-21.95-37.62-.46-.84-23.79-45.32-23.79-45.32a19.66,19.66,0,0,1-.94-5.41c-.29-4.84-3.29-11.09-6.36-13.87A10.45,10.45,0,0,0,274,115.4Z"/><path class="cls-3" d="M279,130.58s-1.54-4.78-4.16-4.22c-2.2.47-2.89.85,4.57,9.29C279.4,135.65,280.72,134.92,279,130.58Z"/><path class="cls-3" d="M361.76,396.11c-4.25-2.58-15.82-3.93-15.62-6.5,1.55-20.76,7.5-52,7.5-52,1.48-20.75,9.55-51.67,9.64-59.25-1.66-7.73-16.62-15.4-16.91-7.42-1,9.29-2.22,13.69-3.22,23.29-1.5,11.9-3.34,36.9-2.35,43.76.14.95-3,52.65-2.15,55.82.91,3.46,3.17,2.71,10.25,3.54C354,398,365.62,398.46,361.76,396.11Z"/><path class="cls-4" d="M254.3,267.75l-14.33,6s-1.72,24.3,1.23,30.92S258,326.18,258,326.18l19-7.16Z"/><path class="cls-5" d="M336.81,290.71c3.93-1.31,5.48-2.31,9.38-4.12,7.88-3.67,17.08-8.21,17.08-8.21a109.37,109.37,0,0,0-3.49-12.26l-4.17-11.84c-1.21-3.36-5.37-13.49-7.43-17.56,0,0-18.72,1.21-31.62,5.52-13.13,4.38-48.43,21.86-62.27,25.53l11.54,26h0L277.07,319c21.3-18.23,35.61-25.57,48.37-27.07C329.69,291.46,333.81,291.71,336.81,290.71Z"/><path class="cls-2" d="M370,259.91,364.16,244c-6.56,5.21-10.81,4.18-10.81,4.18s-4.72,2.27-2.06,9.54,7.73,5.94,7.73,5.94S361.59,260.16,370,259.91Z"/><path class="cls-3" d="M394.24,262.34c19.66-4.19,22.54-12.74,20.54-22.11s-8.11-16-27.77-11.82a39.81,39.81,0,0,0-15.24,6.36c-8,5.81-9.66,13.25-9,16.53s5.24,9.41,14.92,11.44A39.78,39.78,0,0,0,394.24,262.34Z"/><path class="cls-6" d="M371.89,254.37a11.07,11.07,0,0,1-2-9.57,5,5,0,0,1,2.74,2.07,7.42,7.42,0,0,1,0,2.36,7.17,7.17,0,0,1,1,2.1C373.61,252.4,371.89,254.37,371.89,254.37Z"/><path class="cls-7" d="M371.89,254.37a7,7,0,0,1-2-9.57s.7.37,1.47,3.13c.13.46-.11,1.16,0,1.57s.57.81.63,1.23C372.39,253.66,371.89,254.37,371.89,254.37Z"/><ellipse class="cls-8" cx="413.82" cy="240.43" rx="6.23" ry="9.13" transform="translate(-41.03 91.54) rotate(-12.03)"/><path class="cls-9" d="M393.54,263.13c19.65-4.19,23.84-10.71,21.24-22.9S405.7,223.79,386,228c0,0,11.19,24.88,18.35,23.36C397.24,252.86,393.54,263.13,393.54,263.13Z"/><path class="cls-3" d="M379.75,228.26c-5.16,2.05-5.16,3.24-4.54,4.81l11.28-4.21C385.86,227.29,384.9,226.2,379.75,228.26Z"/><path class="cls-3" d="M393.59,262.18l-12,.75c.07,1.68.56,2.77,6.11,2.54S393.65,263.86,393.59,262.18Z"/><path class="cls-9" d="M385.62,230.14a8.06,8.06,0,0,1,1.5-.41,6.63,6.63,0,0,1,1-.11L387,227.78,386,228s.11.2.33.55l0,0a11.14,11.14,0,0,1-2,1.42S383.9,230.8,385.62,230.14Z"/><path class="cls-9" d="M393.8,261.1a8.28,8.28,0,0,1-1.54.24c-1.85.1-1.1.75-1.1.75a11,11,0,0,1,2.43.47c0,.37-.06.58-.06.58l.92-.2.32-2.15a6.6,6.6,0,0,1-1,.32"/><path class="cls-10" d="M243.69,213c-.46-11.55-.62-20.62.37-31.66,3.13,1.51,18.44,3.39,21.51,2.75-.06,3.59-.66,30.05-.66,30.05.81,5,3.54,54.95,0,81.78a71.11,71.11,0,0,1-4.77,9.92c-1.75,3-17.81,5.29-24.51-1.75s-4.29-18.78-3.67-26C233.15,263.92,243.69,213,243.69,213Z"/><path class="cls-3" d="M96.28,393.35c-3-2.95-5.06-7.12-4.34-8.45,1.41-2.6,9.61-3.18,12.47-5.82,1.84-1.7,8.86-4,10.28-4.76,7.26-4.13,20.7-13.15,29.54-18q3.06-1.69,6.37-3.31c8.94-4.37,12.16,16.55,8.79,17.8-13.54,5-37.84,12.19-42.93,13.44,0,0-8.68,6.54-11.75,8.73C102.78,394.32,99.82,396.81,96.28,393.35Z"/><path class="cls-4" d="M180.83,341.29A209.43,209.43,0,0,0,150.6,353c2.46,2.46,8.37,14.68,8.78,17.78,3.37-1.25,6.12-2.31,7.77-3,8.28-3.54,20.94-9.52,20.94-9.52,7.59-2.8,60.74-21.34,71.33-27.51a156.06,156.06,0,0,0,17.31-11.66l-11.46-26.37C241.19,303,208,325.31,201.1,329.57S180.83,341.29,180.83,341.29Z"/></svg>